<svg xmlns="http://www.w3.org/2000/svg" viewBox="0 0 49 64">
    <symbol id="pdf" viewBox="0 0 49 64">
        <g>
            <path class="cls-1" fill="#cb0606"
                  d="M49.000,16.842 L49.000,58.947 C49.000,61.738 46.730,64.000 43.931,64.000 L5.069,64.000 C2.269,64.000 -0.000,61.738 -0.000,58.947 L-0.000,5.053 C-0.000,2.262 2.269,-0.000 5.069,-0.000 L32.103,-0.000 L49.000,16.842 Z"/>
            <path class="cls-2" fill="#fb8d8d"
                  d="M49.000,15.899 L49.000,17.995 L35.187,17.995 C32.327,17.995 31.008,15.675 31.008,12.814 L31.008,-0.000 L33.100,-0.000 L49.000,15.899 Z"/>
            <path class="cls-3" fill="#fff"
                  d="M37.606,34.047 C37.170,33.903 36.750,33.830 36.345,33.830 C35.885,33.830 35.569,33.925 35.396,34.115 C35.224,34.305 35.138,34.641 35.138,35.124 L35.138,36.047 L37.071,36.047 L37.071,37.901 L35.138,37.901 L35.138,45.536 L32.796,45.536 L32.796,37.901 L31.589,37.901 L31.589,36.047 L32.796,36.047 L32.796,35.124 C32.796,33.948 33.088,33.098 33.672,32.573 C34.256,32.048 35.134,31.786 36.308,31.786 C36.859,31.786 37.443,31.861 38.060,32.012 L37.606,34.047 ZM27.796,44.613 C27.360,44.981 26.900,45.274 26.416,45.491 C25.932,45.708 25.382,45.816 24.765,45.816 C23.567,45.816 22.650,45.385 22.015,44.523 C21.379,43.660 21.062,42.442 21.062,40.868 C21.062,39.258 21.411,38.007 22.110,37.114 C22.809,36.222 23.790,35.775 25.055,35.775 C25.503,35.775 25.962,35.867 26.434,36.051 C26.906,36.235 27.297,36.469 27.605,36.752 L27.605,32.066 L29.947,32.066 L29.947,45.536 L27.796,45.536 L27.796,44.613 ZM27.605,38.679 C27.357,38.456 27.050,38.258 26.684,38.086 C26.318,37.915 25.944,37.829 25.563,37.829 C24.934,37.829 24.429,38.099 24.048,38.638 C23.666,39.178 23.476,39.909 23.476,40.832 C23.476,41.743 23.632,42.457 23.943,42.976 C24.255,43.495 24.737,43.754 25.391,43.754 C25.778,43.754 26.173,43.665 26.575,43.487 C26.977,43.309 27.321,43.090 27.605,42.831 L27.605,38.679 ZM17.595,45.201 C17.020,45.611 16.334,45.816 15.535,45.816 C14.482,45.816 13.584,45.488 12.840,44.830 L12.840,49.109 L10.498,49.109 L10.498,36.047 L12.658,36.047 L12.658,36.978 C13.094,36.604 13.552,36.310 14.033,36.096 C14.514,35.882 15.066,35.775 15.689,35.775 C16.893,35.775 17.810,36.197 18.439,37.042 C19.068,37.886 19.383,39.113 19.383,40.723 C19.383,41.743 19.229,42.641 18.920,43.419 C18.611,44.197 18.170,44.791 17.595,45.201 ZM16.488,38.602 C16.167,38.086 15.689,37.829 15.054,37.829 C14.673,37.829 14.281,37.918 13.879,38.095 C13.476,38.273 13.130,38.492 12.840,38.751 L12.840,42.903 C13.088,43.127 13.395,43.324 13.761,43.496 C14.127,43.668 14.503,43.754 14.891,43.754 C15.532,43.754 16.039,43.481 16.411,42.935 C16.783,42.389 16.969,41.664 16.969,40.760 C16.969,39.837 16.808,39.118 16.488,38.602 Z"/>
        </g>
    </symbol>

    <symbol id="xls" viewBox="0 0 49 64">
        <g>
            <path class="cls-4" fill="#79ac00"
                  d="M49.000,16.842 L49.000,58.947 C49.000,61.738 46.730,64.000 43.931,64.000 L5.069,64.000 C2.269,64.000 -0.000,61.738 -0.000,58.947 L-0.000,5.053 C-0.000,2.262 2.269,-0.000 5.069,-0.000 L32.103,-0.000 L49.000,16.842 Z"/>
            <path class="cls-5" fill="#fff"
                  d="M31.614,37.684 C31.129,37.684 30.763,37.767 30.515,37.933 C30.267,38.099 30.143,38.311 30.143,38.570 C30.143,38.818 30.255,39.015 30.479,39.163 C30.703,39.311 31.145,39.466 31.804,39.629 C32.887,39.894 33.660,40.158 34.123,40.420 C34.586,40.683 34.937,41.008 35.176,41.397 C35.415,41.786 35.534,42.264 35.534,42.831 C35.534,43.458 35.375,43.995 35.058,44.441 C34.740,44.888 34.289,45.228 33.705,45.463 C33.121,45.699 32.454,45.816 31.704,45.816 C29.714,45.816 28.359,45.264 27.639,44.161 L29.381,42.940 C29.665,43.326 29.994,43.583 30.366,43.713 C30.738,43.843 31.136,43.908 31.559,43.908 C32.672,43.908 33.229,43.585 33.229,42.940 C33.229,42.656 33.072,42.438 32.757,42.284 C32.442,42.130 31.949,41.972 31.278,41.809 C30.013,41.532 29.124,41.139 28.610,40.633 C28.095,40.126 27.838,39.469 27.838,38.661 C27.838,37.823 28.160,37.132 28.805,36.589 C29.449,36.047 30.397,35.775 31.650,35.775 C32.503,35.775 33.255,35.911 33.905,36.182 C34.555,36.454 35.056,36.861 35.407,37.403 L33.656,38.643 C33.238,38.004 32.557,37.684 31.614,37.684 ZM23.282,32.066 L25.624,32.066 L25.624,45.536 L23.282,45.536 L23.282,32.066 ZM18.917,45.536 L17.030,42.514 L15.051,45.536 L12.456,45.536 L15.741,40.850 L12.510,36.047 L15.242,36.047 L17.138,39.050 L19.090,36.047 L21.676,36.047 L18.400,40.723 L21.694,45.536 L18.917,45.536 Z"/>
            <path class="cls-6" fill="#b4e441"
                  d="M49.000,15.899 L49.000,17.995 L35.187,17.995 C32.327,17.995 31.008,15.675 31.008,12.814 L31.008,-0.000 L33.100,-0.000 L49.000,15.899 Z"/>
        </g>
    </symbol>
</svg>